<?xml version="1.0" standalone="no"?>
<!DOCTYPE svg PUBLIC "-//W3C//DTD SVG 20010904//EN"
 "http://www.w3.org/TR/2001/REC-SVG-20010904/DTD/svg10.dtd">
<svg version="1.0" xmlns="http://www.w3.org/2000/svg"
 width="855.000000pt" height="855.000000pt" viewBox="0 0 855.000000 855.000000"
 preserveAspectRatio="xMidYMid meet">
<metadata>
Created by potrace 1.14, written by Peter Selinger 2001-2017
</metadata>
<g transform="translate(0.000000,855.000000) scale(0.100000,-0.100000)"
fill="#000000" stroke="none">
<path d="M2825 8304 c-5 -1 -26 -5 -45 -8 -99 -17 -148 -123 -285 -621 -117
-427 -222 -748 -340 -1046 -61 -154 -189 -446 -200 -457 -1 -2 -38 6 -81 17
-108 27 -191 40 -309 46 -445 22 -656 34 -684 40 -49 9 -127 18 -135 16 -5 -1
-4 5 4 14 7 8 15 46 17 83 4 61 2 71 -26 114 -36 57 -92 88 -158 89 -52 2
-110 -18 -132 -45 -13 -15 -20 -10 -80 52 -36 38 -54 55 -40 38 38 -45 79
-102 79 -109 0 -4 -17 -15 -37 -26 l-37 -19 -26 33 c-15 19 -42 46 -61 61 -31
26 -31 25 7 -17 68 -75 74 -97 33 -129 -4 -3 -23 -24 -43 -48 -27 -33 -35 -51
-33 -75 2 -18 -8 -55 -21 -85 -52 -115 28 -188 141 -128 l47 25 35 -21 c40
-23 127 -28 163 -9 12 6 22 8 23 4 0 -4 2 -34 4 -66 2 -32 5 -59 7 -61 1 -1
23 -19 46 -40 l44 -38 -89 7 c-48 4 -90 8 -93 8 -3 1 -26 -6 -51 -16 -42 -16
-109 -81 -109 -104 0 -4 4 -3 8 3 30 43 126 84 184 79 18 -2 69 -4 113 -6 62
-1 90 -7 124 -25 l44 -23 -90 5 c-93 6 -133 -3 -133 -31 0 -11 4 -12 24 -1 14
7 48 11 78 9 29 -1 85 -4 123 -7 47 -2 91 -13 135 -32 86 -36 92 -43 28 -33
-29 5 -79 11 -111 14 -32 3 -78 10 -103 14 -41 8 -113 5 -123 -5 -2 -2 9 -4
25 -5 35 -1 46 -2 159 -22 50 -9 110 -19 135 -22 131 -18 213 -37 261 -60 l54
-26 -65 7 c-36 3 -74 8 -85 10 -11 2 -45 6 -75 9 -30 3 -62 7 -70 10 -8 2 -40
7 -70 10 -30 3 -62 8 -70 10 -8 2 -31 7 -50 10 -179 29 -282 68 -299 113 l-9
27 -1 -32 c-1 -18 -2 -36 -3 -40 -7 -19 129 -68 237 -86 17 -3 55 -11 85 -17
82 -17 90 -18 150 -24 84 -9 142 -16 175 -21 17 -3 53 -7 80 -10 28 -3 82 -10
120 -15 39 -5 92 -12 119 -16 43 -5 116 -29 116 -37 0 -5 -418 1 -555 8 -154
7 -196 14 -217 32 -15 13 -16 13 -11 -6 7 -27 8 -27 68 -36 127 -17 264 -24
590 -29 194 -4 226 -6 270 -25 l50 -20 -65 -1 c-206 -3 -649 -1 -733 4 -111 6
-196 36 -256 90 l-34 31 29 -43 c40 -63 122 -102 223 -108 86 -4 403 -13 714
-18 l209 -4 -6 23 c-3 13 -9 30 -12 39 -5 13 -1 15 27 10 19 -4 40 -12 48 -18
19 -15 51 -85 51 -113 0 -27 32 -49 80 -57 52 -8 112 -31 160 -61 23 -14 43
-25 44 -23 2 2 19 28 38 58 20 30 54 74 77 97 22 23 41 44 41 47 0 3 -79 73
-174 156 -164 141 -178 150 -216 150 l-41 0 6 43 c3 23 7 61 9 84 3 52 6 56
40 43 106 -40 657 -183 790 -205 17 -3 76 -14 131 -25 98 -19 242 -44 320 -55
22 -4 50 -8 62 -10 13 -2 67 -9 120 -15 54 -6 108 -13 119 -15 12 -2 61 -6
110 -10 49 -4 100 -9 114 -11 189 -23 887 -23 1050 1 14 2 70 7 125 10 114 8
138 10 215 19 185 23 212 26 240 31 14 2 45 7 70 10 25 3 56 8 70 11 14 2 39
6 55 8 17 3 74 14 129 26 54 12 106 23 115 25 49 10 167 47 241 75 200 78 304
175 297 280 -2 21 -11 28 -52 42 -28 9 -93 20 -145 25 -171 14 -898 8 -1335
-12 -38 -2 -142 -6 -230 -10 -88 -3 -189 -8 -225 -10 -36 -2 -114 -6 -175 -10
-225 -12 -292 -16 -355 -20 -36 -2 -119 -7 -185 -11 -123 -6 -152 -8 -315 -18
-52 -4 -131 -9 -175 -11 -79 -5 -134 -9 -290 -20 -44 -3 -114 -8 -155 -10 -76
-5 -180 -12 -280 -20 -30 -2 -95 -7 -145 -10 -49 -3 -112 -8 -140 -10 -27 -2
-89 -7 -136 -10 l-87 -7 -28 35 c-15 19 -29 43 -31 54 -14 66 -6 103 30 144
22 25 62 74 247 304 58 72 107 132 110 135 12 10 330 430 406 535 239 330 352
521 383 649 18 75 12 215 -13 289 -41 121 -120 214 -211 249 -22 8 -44 14 -50
12z m-2221 -1839 c61 -30 103 -81 116 -142 7 -29 4 -36 -20 -53 l-28 -20 -6
43 c-17 109 -135 176 -237 133 -93 -39 -132 -159 -84 -259 l16 -32 -20 25
c-49 59 -51 160 -5 229 58 88 175 121 268 76z"/>
<path d="M4290 8284 c-68 -24 -85 -39 -365 -309 -348 -336 -391 -378 -810
-790 -225 -221 -477 -469 -560 -549 -284 -279 -625 -619 -623 -621 3 -3 146
81 218 126 14 9 165 101 335 204 302 184 799 493 980 610 50 32 122 78 160
103 406 262 722 487 846 602 85 80 130 189 130 319 0 150 -76 282 -179 311
-50 13 -78 12 -132 -6z"/>
<path d="M6118 7555 c-2 -1 -27 -6 -56 -9 -30 -3 -73 -11 -95 -16 -23 -5 -56
-11 -74 -14 -50 -9 -297 -93 -413 -140 -153 -63 -265 -115 -630 -294 -301
-146 -668 -300 -1180 -493 -102 -39 -196 -75 -210 -81 -27 -11 -250 -94 -555
-206 -180 -66 -726 -264 -882 -319 -77 -27 -91 -36 -46 -29 16 3 80 12 143 21
63 8 126 17 140 19 14 3 48 7 75 11 28 3 75 10 105 15 30 6 75 12 100 14 25 3
59 7 75 10 32 5 170 25 220 31 26 4 187 27 280 40 17 3 89 14 160 24 72 11
155 23 185 26 30 3 62 8 70 10 15 4 62 11 132 20 20 3 78 11 129 19 109 17
148 23 241 36 37 5 122 19 190 29 68 11 143 22 168 26 53 7 145 22 215 35 28
5 70 12 95 14 25 3 70 10 100 16 30 6 69 13 87 15 27 4 398 79 445 90 192 45
533 145 633 185 11 4 47 18 80 30 33 12 79 31 102 41 24 11 45 19 48 19 16 0
238 118 300 158 86 57 185 154 210 207 30 66 31 125 2 187 -53 114 -175 202
-334 239 -43 10 -247 21 -255 14z"/>
<path d="M7106 5969 c-86 -68 -129 -413 -129 -1044 1 -226 10 -668 18 -820 1
-33 6 -121 9 -195 4 -74 8 -169 11 -210 6 -106 15 -261 20 -355 3 -44 7 -114
10 -155 3 -41 7 -111 10 -155 3 -44 7 -102 10 -130 2 -27 7 -93 10 -145 4 -52
8 -111 10 -130 6 -62 18 -224 19 -255 1 -29 0 -30 -51 -33 l-53 -3 -1 38 c-1
21 -3 47 -4 58 -1 11 -5 70 -9 130 -4 61 -8 128 -10 150 -3 22 -7 83 -11 135
-3 52 -8 106 -10 120 -2 14 -7 68 -10 120 -4 52 -9 103 -10 112 -2 10 -7 57
-10 105 -3 49 -8 102 -10 118 -4 33 -11 103 -20 205 -3 36 -8 81 -10 100 -3
19 -7 60 -10 90 -3 30 -7 71 -10 90 -3 19 -7 55 -9 80 -2 25 -9 81 -15 125 -5
44 -13 105 -16 135 -3 30 -8 62 -10 70 -2 8 -6 40 -10 71 -3 31 -7 65 -9 75
-2 11 -7 44 -11 74 -4 30 -9 62 -10 70 -2 8 -6 35 -9 60 -3 25 -8 54 -10 65
-2 11 -7 40 -11 65 -4 25 -9 54 -11 65 -3 11 -6 34 -9 50 -3 26 -26 148 -39
210 -72 350 -157 569 -236 610 -78 40 -208 -41 -264 -165 -76 -169 -63 -479
34 -756 37 -109 189 -569 223 -679 26 -82 106 -340 157 -500 15 -49 42 -137
60 -195 17 -58 44 -145 60 -195 66 -207 270 -884 270 -896 0 -10 -15 -14 -49
-15 l-49 0 -17 60 c-33 116 -168 522 -232 696 -102 278 -187 478 -308 725
-266 546 -509 852 -759 958 -62 27 -83 31 -166 31 -83 1 -99 -2 -126 -21 -44
-31 -57 -70 -51 -146 14 -168 184 -478 500 -910 132 -180 382 -499 536 -682
130 -156 355 -420 362 -425 3 -3 41 -45 84 -95 43 -49 97 -110 121 -135 24
-25 44 -48 44 -51 0 -3 -28 -7 -62 -7 l-63 -2 -38 49 c-21 27 -46 57 -56 68
-9 10 -45 52 -81 93 -35 41 -69 80 -74 86 -6 6 -20 22 -31 35 -39 45 -118 134
-209 234 -147 163 -602 614 -720 715 -397 337 -638 443 -758 332 -96 -89 -16
-259 223 -477 87 -79 122 -109 159 -135 19 -13 40 -30 45 -36 16 -18 184 -139
355 -256 275 -186 646 -413 1024 -623 l158 -89 -70 -66 c-38 -36 -86 -92 -105
-125 -26 -44 -178 -460 -201 -550 -13 -51 -22 -74 -41 -108 -13 -21 -25 -35
-28 -30 -2 4 -10 41 -17 81 -13 71 -14 72 -33 55 -11 -10 -46 -53 -78 -96 -50
-66 -57 -82 -48 -98 13 -25 44 -35 113 -38 18 -1 18 -3 -4 -26 -19 -21 -31
-25 -64 -22 -23 2 -59 -1 -80 -7 -37 -11 -41 -10 -70 19 -63 61 -91 80 -46 30
25 -27 49 -53 54 -56 5 -4 -5 -24 -22 -44 -18 -19 -38 -51 -46 -70 -8 -18 -23
-38 -34 -44 -20 -11 -45 6 -142 96 -19 17 -36 30 -38 29 -2 -2 25 -30 59 -62
34 -33 68 -65 75 -72 11 -11 10 -20 -8 -54 -70 -134 34 -295 184 -282 76 6
136 48 164 113 8 19 31 51 52 71 20 20 43 44 50 53 7 10 16 17 21 17 6 0 36
-93 47 -145 1 -5 7 -32 14 -60 14 -61 37 -208 39 -252 1 -20 -4 -33 -11 -34
-113 -9 -179 -21 -194 -36 -15 -15 -14 -17 8 -29 44 -23 225 -39 537 -49 248
-8 151 6 -146 20 -245 12 -368 27 -387 45 -9 9 8 15 69 25 39 6 162 18 197 19
25 1 30 16 5 16 -8 0 -12 25 -12 83 1 132 -23 242 -87 405 -11 28 -11 34 2 42
11 7 22 1 43 -23 16 -17 54 -61 85 -97 32 -35 76 -86 100 -112 39 -45 47 -66
43 -110 -2 -14 5 -18 31 -18 21 0 28 3 20 8 -7 5 -13 25 -14 45 -1 31 -18 55
-117 170 -64 73 -122 141 -129 149 -11 14 -10 18 9 28 12 7 24 8 28 3 3 -4 71
-62 151 -128 80 -66 177 -147 215 -180 39 -33 82 -69 97 -81 23 -18 28 -32 33
-85 4 -35 8 -74 10 -87 2 -12 -2 -22 -8 -23 -7 -1 3 -5 22 -9 36 -9 71 -2 52
9 -6 4 -11 50 -12 104 l-3 97 -35 31 c-20 17 -76 68 -125 113 -49 44 -97 88
-106 96 -9 8 -56 51 -104 94 -48 44 -94 84 -102 91 -14 10 -13 13 10 28 14 9
27 17 29 17 2 0 12 -20 21 -44 l17 -43 147 -58 c142 -55 211 -87 372 -173 73
-39 75 -41 77 -78 2 -50 -6 -76 -19 -68 -6 4 -8 3 -5 -2 3 -6 23 -9 44 -8 48
2 50 3 37 12 -8 5 -9 23 -3 61 4 30 6 58 3 62 -10 17 -310 191 -353 205 -86
29 -216 77 -224 84 -5 4 -11 29 -14 57 -3 36 -1 52 10 61 12 11 19 7 37 -23
47 -75 78 -91 215 -109 22 -3 184 -63 359 -133 l319 -128 23 -70 c12 -38 37
-116 55 -173 27 -86 39 -110 72 -143 24 -23 34 -39 26 -40 -8 -1 -18 -2 -24
-4 -5 -1 -40 -3 -77 -3 -38 -1 -68 -6 -68 -10 0 -9 53 -8 142 2 44 6 48 4 93
-39 25 -25 40 -46 33 -46 -7 -1 -24 -3 -38 -4 -14 -1 -87 -4 -162 -6 -76 -1
-138 -7 -138 -11 0 -8 269 -4 510 7 248 11 362 17 378 20 9 2 20 4 25 4 4 1 7
6 7 12 0 10 -32 9 -215 -6 -33 -3 -112 -7 -176 -10 l-116 -5 -44 47 -43 47 39
8 c57 12 55 18 -3 11 -50 -6 -51 -5 -93 41 -39 42 -48 63 -100 232 -31 102
-60 189 -65 193 -5 5 -103 57 -219 116 -115 59 -253 130 -305 158 -52 28 -108
51 -125 52 -88 7 -181 18 -185 22 -2 2 -10 21 -16 41 -9 32 -8 40 7 56 18 18
19 18 28 -7 11 -29 18 -34 52 -41 13 -3 78 -21 144 -40 66 -19 163 -47 215
-61 52 -15 149 -43 215 -62 66 -19 149 -43 185 -53 36 -9 86 -24 112 -31 33
-9 50 -20 54 -34 3 -11 12 -33 20 -50 7 -16 41 -97 74 -180 33 -82 72 -167 85
-187 22 -33 23 -37 7 -41 -9 -3 17 -5 58 -5 45 0 65 3 50 7 -44 12 -111 111
-159 233 -25 62 -60 150 -78 194 l-34 81 -132 47 c-306 110 -440 157 -585 208
l-153 53 6 88 6 88 62 85 c34 46 80 109 102 139 113 154 205 362 220 496 3 31
7 65 9 75 3 15 14 95 18 123 2 21 -9 26 -65 28 -34 1 -93 8 -132 16 -38 8 -71
14 -73 12 -4 -4 -13 -58 -28 -170 -7 -57 -8 -58 -34 -60 -26 -2 -25 8 6 135
14 58 32 137 40 175 9 39 17 77 19 85 6 27 94 464 99 495 55 328 86 532 101
660 3 28 8 64 10 80 2 17 6 57 10 90 3 33 8 74 10 90 2 17 7 72 11 123 3 52 8
106 10 120 9 55 12 680 4 765 -33 322 -89 534 -185 693 -71 120 -119 152 -169
113z m-932 -4809 c48 -33 78 -90 78 -147 0 -48 -16 -80 -18 -37 -1 14 -17 48
-35 75 -39 58 -110 98 -177 101 -47 1 -53 9 -19 26 37 19 130 9 171 -18z"/>
<path d="M2434 5255 c-52 -58 -83 -110 -73 -119 2 -2 46 -28 97 -59 166 -100
398 -277 533 -409 17 -16 21 -12 68 53 28 38 51 75 50 82 0 6 -77 71 -170 142
-94 72 -220 175 -281 230 -60 55 -122 110 -138 123 l-28 23 -58 -66z"/>
<path d="M3150 4659 c-27 -39 -47 -75 -45 -80 5 -6 136 -102 219 -159 53 -37
161 -123 299 -242 82 -70 152 -128 155 -128 6 1 78 107 90 131 2 4 -41 42 -95
85 -113 91 -98 79 -273 225 -74 62 -168 141 -208 176 -40 35 -77 63 -82 63 -5
0 -32 -32 -60 -71z"/>
<path d="M3924 4068 c-37 -56 -56 -100 -47 -108 5 -4 46 -38 93 -76 47 -38 96
-78 109 -89 61 -50 137 -121 278 -263 146 -146 153 -151 164 -130 7 12 35 46
62 75 28 29 48 55 46 57 -6 5 -84 71 -154 131 -92 78 -225 194 -285 249 -31
28 -74 67 -95 86 -22 19 -59 52 -83 73 -23 20 -46 37 -51 37 -4 0 -21 -19 -37
-42z"/>
<path d="M7540 3593 c0 -3 10 -18 23 -33 12 -16 36 -46 52 -67 59 -75 96 -111
148 -146 l52 -36 170 -6 c94 -3 227 -8 296 -11 l126 -6 31 49 c17 26 49 72 71
102 48 64 55 110 19 112 -13 1 -43 2 -68 4 -25 1 -110 5 -190 9 -80 4 -176 9
-215 11 -38 2 -135 7 -215 10 -80 3 -180 8 -222 10 -43 2 -78 2 -78 -2z"/>
<path d="M7343 3092 c-67 -218 -120 -398 -119 -399 1 -1 29 -9 62 -17 65 -17
166 -26 195 -19 12 3 32 40 60 111 23 59 45 112 50 117 10 14 74 204 98 292
l19 72 -24 16 c-31 20 -139 127 -184 182 l-35 42 -122 -397z"/>
<path d="M4661 3400 c-76 -79 -76 -82 10 -163 41 -38 130 -121 198 -186 68
-64 162 -153 210 -198 l86 -82 35 34 c19 18 52 44 72 58 l38 25 -138 129 c-75
71 -163 154 -196 184 -62 57 -153 144 -222 211 l-42 40 -51 -52z"/>
<path d="M8519 3252 l-26 -43 26 -49 26 -50 3 45 c2 25 2 66 0 93 l-3 47 -26
-43z"/>
<path d="M5353 2783 c-35 -16 -76 -54 -100 -90 -14 -21 -9 -30 91 -171 58 -82
156 -232 217 -333 92 -151 277 -428 309 -462 4 -5 22 12 40 38 18 26 63 77
100 114 l68 67 -135 169 c-74 94 -144 181 -156 195 -62 71 -184 219 -273 330
-139 176 -123 162 -161 143z"/>
<path d="M6084 1798 c-61 -63 -105 -122 -122 -162 -13 -28 -11 -31 39 -82 l52
-52 42 56 c23 31 65 84 93 116 l51 60 -22 27 c-12 15 -33 41 -46 58 -13 17
-26 31 -30 31 -4 0 -29 -24 -57 -52z"/>
<path d="M5147 714 c-1 -1 -60 -5 -130 -8 -70 -4 -151 -9 -180 -11 -29 -2 -95
-6 -149 -10 -53 -4 -109 -8 -125 -10 -15 -2 -66 -6 -113 -10 -47 -4 -92 -9
-100 -10 -8 -2 -44 -6 -80 -10 -36 -4 -72 -9 -81 -10 -9 -2 -40 -6 -70 -10
-106 -13 -272 -55 -315 -80 -43 -25 -52 -43 -38 -80 15 -39 168 -87 379 -119
135 -20 159 -23 235 -31 36 -4 76 -8 90 -10 14 -2 61 -6 105 -10 44 -3 91 -8
105 -10 14 -2 68 -7 120 -10 52 -3 118 -8 145 -10 56 -5 165 -11 360 -20 72
-4 166 -8 210 -10 290 -15 630 -20 1445 -20 945 0 1555 5 1578 13 46 16 -20
20 -240 14 -479 -13 -1651 -5 -2073 13 -55 2 -172 7 -260 9 -296 10 -420 16
-480 21 -33 3 -116 7 -185 10 -69 3 -150 7 -180 10 -30 2 -93 7 -140 10 -47 3
-110 8 -140 10 -30 3 -89 7 -130 10 -41 3 -91 8 -110 10 -19 2 -69 6 -110 10
-41 4 -86 8 -100 10 -14 2 -54 7 -90 10 -36 3 -72 8 -80 10 -8 2 -35 7 -60 10
-40 5 -90 14 -170 29 -87 18 -172 48 -178 63 -6 21 116 64 248 88 14 3 36 7
50 10 14 2 45 7 70 10 25 3 70 10 100 15 30 5 84 12 120 15 36 4 76 8 90 10
14 2 54 6 90 10 36 3 81 8 100 10 19 3 73 7 120 10 47 4 99 8 115 10 17 2 68
6 115 10 47 3 108 8 135 10 28 3 100 7 160 11 61 3 112 8 115 11 4 4 -288 1
-293 -3z"/>
<path d="M5458 713 c7 -3 16 -2 19 1 4 3 -2 6 -13 5 -11 0 -14 -3 -6 -6z"/>
<path d="M5957 593 c-1 0 -54 -4 -117 -7 -110 -6 -174 -12 -250 -21 -19 -2
-62 -7 -95 -11 -85 -8 -187 -32 -209 -49 -24 -18 -15 -40 23 -59 47 -25 236
-53 466 -70 360 -27 623 -36 1090 -37 617 -1 755 1 755 9 0 4 -201 7 -448 8
-403 0 -775 8 -952 19 -36 2 -121 7 -190 10 -69 4 -141 8 -160 10 -19 2 -75 6
-125 10 -147 12 -225 20 -270 29 -47 9 -105 18 -110 17 -3 -1 -19 6 -37 15
-27 14 -29 17 -14 26 23 13 184 45 266 53 36 3 81 8 100 10 114 13 218 22 307
26 58 3 63 14 6 14 -19 0 -35 -1 -36 -2z"/>
<path d="M6054 592 c5 -8 76 -4 76 4 0 2 -18 4 -41 4 -22 0 -38 -4 -35 -8z"/>
<path d="M6148 593 c6 -2 18 -2 25 0 6 3 1 5 -13 5 -14 0 -19 -2 -12 -5z"/>
<path d="M6568 553 c6 -2 18 -2 25 0 6 3 1 5 -13 5 -14 0 -19 -2 -12 -5z"/>
<path d="M6628 553 c7 -3 16 -2 19 1 4 3 -2 6 -13 5 -11 0 -14 -3 -6 -6z"/>
<path d="M8020 528 c0 -2 9 -11 20 -21 11 -9 20 -13 20 -7 0 5 -9 14 -20 20
-11 6 -20 9 -20 8z"/>
<path d="M7607 454 c-1 -1 -46 -4 -100 -7 -54 -3 -101 -7 -104 -10 -2 -3 26
-4 64 -2 37 2 103 3 146 4 42 1 77 4 77 9 0 6 -77 11 -83 6z"/>
<path d="M6945 440 c-3 -5 -1 -10 4 -10 6 0 11 5 11 10 0 6 -2 10 -4 10 -3 0
-8 -4 -11 -10z"/>
<path d="M6993 433 c15 -2 39 -2 55 0 15 2 2 4 -28 4 -30 0 -43 -2 -27 -4z"/>
<path d="M7103 433 c15 -2 37 -2 50 0 12 2 0 4 -28 4 -27 0 -38 -2 -22 -4z"/>
<path d="M7233 433 c15 -2 37 -2 50 0 12 2 0 4 -28 4 -27 0 -38 -2 -22 -4z"/>
<path d="M7328 433 c12 -2 32 -2 45 0 12 2 2 4 -23 4 -25 0 -35 -2 -22 -4z"/>
</g>
</svg>
