<?xml version="1.0" standalone="no"?>
<!DOCTYPE svg PUBLIC "-//W3C//DTD SVG 20010904//EN"
 "http://www.w3.org/TR/2001/REC-SVG-20010904/DTD/svg10.dtd">
<svg version="1.0" xmlns="http://www.w3.org/2000/svg"
 width="310.000000pt" height="310.000000pt" viewBox="0 0 310.000000 310.000000"
 preserveAspectRatio="xMidYMid meet">
<metadata>
Created by potrace 1.14, written by Peter Selinger 2001-2017
</metadata>
<g transform="translate(0.000000,310.000000) scale(0.100000,-0.100000)"
fill="#000000" stroke="none">
<path d="M0 2969 c0 -135 7 -159 45 -159 8 0 18 -7 21 -15 4 -8 10 -13 14 -10
5 3 16 -2 24 -11 9 -9 23 -13 31 -10 10 3 12 0 8 -12 -3 -9 -3 -14 2 -10 4 4
14 3 22 -3 7 -6 13 -8 13 -3 0 5 4 4 8 -1 10 -15 66 -50 75 -47 4 1 7 -1 7 -6
0 -4 18 -18 40 -32 22 -14 40 -28 40 -33 0 -4 4 -6 9 -3 5 3 11 -1 15 -9 3 -8
12 -15 21 -15 8 0 15 -4 15 -10 0 -5 7 -10 15 -10 7 0 19 -8 24 -17 6 -10 11
-14 11 -10 0 8 15 -3 52 -38 13 -12 18 -14 14 -5 -4 8 1 5 10 -7 9 -13 23 -23
30 -23 8 0 14 -4 14 -10 0 -5 5 -10 11 -10 6 0 16 -6 24 -12 32 -31 54 -46 59
-41 3 3 8 -2 12 -11 3 -9 12 -16 19 -16 15 0 38 -26 41 -46 1 -8 -3 -14 -9
-14 -8 0 -8 -3 -2 -8 6 -4 10 -24 10 -45 0 -32 -2 -35 -12 -21 -6 9 -9 22 -7
29 3 7 -2 15 -11 19 -11 4 -14 2 -8 -7 11 -17 10 -41 -2 -49 -6 -5 -4 -12 5
-18 11 -7 11 -10 2 -10 -7 0 -11 -4 -7 -9 3 -6 -2 -14 -12 -19 -16 -9 -19 -19
-27 -67 -1 -11 -9 -31 -16 -45 -8 -14 -13 -28 -12 -32 1 -5 -3 -7 -10 -5 -7 1
-13 -2 -13 -8 -4 -24 -18 -44 -28 -38 -6 3 -7 1 -3 -5 7 -12 -12 -52 -31 -65
-7 -4 -10 -13 -7 -20 2 -7 -4 -22 -14 -33 -10 -11 -18 -27 -16 -36 1 -9 -5
-19 -13 -22 -8 -3 -11 -10 -8 -16 3 -5 1 -10 -6 -10 -7 0 -9 -3 -6 -7 4 -3 2
-12 -3 -19 -6 -6 -13 -22 -15 -35 -3 -12 -10 -26 -17 -31 -10 -6 -9 -8 2 -8
12 0 12 -2 2 -9 -7 -4 -14 -18 -15 -29 -1 -12 -5 -22 -10 -22 -5 0 -7 -7 -3
-15 3 -8 1 -15 -5 -15 -6 0 -8 -4 -4 -9 3 -5 1 -12 -3 -15 -5 -3 -8 -17 -7
-31 2 -14 0 -25 -3 -25 -4 0 -8 -14 -9 -31 -1 -17 -7 -37 -14 -45 -6 -7 -7
-19 -3 -26 4 -7 3 -10 -1 -5 -11 9 -47 -83 -40 -101 3 -7 0 -10 -5 -7 -6 3
-10 1 -10 -5 0 -6 -4 -8 -10 -5 -6 4 -6 -3 0 -21 9 -24 9 -25 -5 -14 -16 13
-21 0 -5 -16 6 -6 5 -15 -1 -24 -9 -13 -10 -12 -5 3 3 9 1 17 -4 17 -16 0 -22
-20 -10 -35 8 -10 8 -15 -1 -21 -7 -4 -9 -3 -6 3 4 6 0 16 -8 23 -13 11 -14
10 -9 -6 4 -10 11 -24 15 -30 5 -6 6 -14 2 -17 -3 -4 -1 -7 7 -7 10 0 10 -4
-1 -17 -12 -14 -12 -15 -1 -9 11 7 12 4 4 -10 -10 -21 -13 -144 -3 -144 4 0 8
-12 9 -27 1 -15 5 -29 10 -32 4 -3 8 -15 10 -26 2 -19 8 -44 12 -55 1 -3 2 -8
1 -12 0 -5 3 -8 9 -8 5 0 10 -5 10 -11 0 -5 -5 -7 -12 -3 -6 4 -4 -3 5 -15 8
-13 13 -30 10 -39 -4 -10 -2 -13 5 -8 8 5 10 2 6 -8 -3 -9 -1 -16 6 -16 6 0 9
-4 6 -8 -3 -5 6 -30 19 -55 13 -26 21 -47 18 -47 -2 0 5 -12 16 -26 11 -15 18
-30 15 -35 -3 -5 2 -9 11 -9 9 0 14 -4 11 -9 -3 -5 7 -23 24 -40 16 -18 29
-34 29 -36 1 -3 1 -10 1 -16 0 -5 4 -7 10 -4 5 3 10 1 10 -6 0 -6 16 -26 34
-44 19 -18 32 -35 29 -39 -4 -3 -1 -6 5 -6 12 0 24 -9 85 -62 18 -15 40 -30
49 -34 10 -3 18 -10 18 -15 0 -5 9 -9 20 -9 11 0 20 -7 20 -16 0 -8 4 -12 10
-9 6 3 10 1 10 -5 0 -6 4 -9 9 -5 5 3 17 -3 27 -12 10 -10 18 -16 18 -15 1 4
45 -13 101 -40 22 -10 54 -19 72 -21 17 -1 29 -6 25 -11 -3 -5 2 -7 11 -3 10
3 17 2 17 -3 0 -6 3 -9 8 -9 4 1 9 0 12 -1 3 -1 14 -3 25 -5 33 -6 49 -10 60
-16 6 -3 20 -4 33 -3 12 0 22 -4 22 -10 0 -6 5 -4 10 4 6 10 10 11 10 3 0 -10
66 -13 298 -13 165 0 304 4 312 10 9 5 19 5 27 -2 7 -6 13 -6 13 -1 0 5 10 10
23 11 42 3 92 15 104 24 7 5 17 7 22 4 5 -4 12 -2 16 4 4 6 10 8 15 5 5 -3 11
-1 15 5 3 5 17 10 30 10 13 0 26 4 29 9 3 5 18 12 33 16 16 3 37 14 47 23 15
13 17 13 11 2 -5 -8 7 -3 27 12 20 16 41 28 47 28 13 0 134 82 171 116 71 64
131 130 167 184 9 14 19 27 23 30 3 3 14 22 25 42 11 21 23 38 28 38 4 0 5 4
2 10 -3 6 -1 10 5 10 6 0 9 4 5 9 -3 5 -1 12 5 16 5 3 10 15 10 26 0 10 5 19
11 19 5 0 8 4 4 9 -3 5 -1 12 5 16 5 3 10 17 10 31 0 13 4 24 10 24 5 0 9 3 9
8 -4 25 2 42 14 36 9 -6 9 -5 0 8 -7 8 -10 18 -6 22 8 7 11 23 17 76 3 20 9
34 16 32 7 -1 8 2 4 10 -13 20 -13 37 -2 44 6 4 5 10 -3 15 -8 5 -9 9 -4 9 10
0 12 109 1 135 -3 8 -2 15 3 15 9 0 8 37 -2 46 -4 4 1 13 11 20 16 12 15 13
-5 9 -15 -2 -20 0 -17 10 3 8 13 11 22 8 10 -3 8 1 -6 11 -12 10 -20 22 -17
27 4 5 2 9 -4 9 -6 0 -7 7 -4 17 5 12 3 14 -8 8 -12 -7 -12 -6 -1 7 10 13 10
17 -2 21 -9 4 -13 15 -11 26 2 11 -3 22 -11 25 -9 3 -12 11 -9 16 4 6 1 17 -5
25 -10 11 -10 15 -1 15 7 0 9 5 4 13 -7 12 -11 30 -16 72 -1 11 -4 22 -7 25
-3 3 -11 27 -18 55 -7 27 -16 52 -20 55 -4 3 -9 16 -11 30 -1 14 -7 28 -12 31
-5 3 -11 14 -13 25 -6 30 -39 94 -48 94 -5 0 -7 4 -3 9 3 5 1 12 -5 16 -6 4
-8 11 -5 16 4 5 1 9 -4 9 -6 0 -11 6 -11 13 0 7 -9 23 -20 35 -11 12 -20 24
-20 27 1 27 -1 35 -8 31 -4 -2 -14 10 -22 27 -7 18 -19 38 -26 44 -7 7 -10 22
-7 34 4 15 3 20 -5 15 -7 -4 -12 -1 -12 9 0 9 -4 13 -10 10 -6 -3 -7 1 -4 9 3
9 11 13 18 10 6 -3 4 0 -5 8 -9 7 -14 20 -11 28 5 13 3 13 -13 0 -11 -9 -16
-10 -11 -3 15 26 14 52 -2 65 -12 10 -14 10 -8 1 4 -8 2 -13 -6 -13 -10 0 -12
11 -10 40 3 24 0 40 -6 40 -6 0 -9 -9 -7 -20 2 -11 -1 -20 -6 -20 -6 0 -8 -4
-4 -9 3 -5 2 -12 -3 -15 -4 -2 -8 15 -7 38 0 32 -3 42 -12 39 -7 -3 -10 -9 -7
-14 3 -5 0 -9 -6 -9 -6 0 -8 -5 -4 -12 4 -6 3 -8 -3 -5 -11 7 -11 52 0 63 4 4
7 2 7 -5 0 -9 4 -9 14 1 8 7 12 16 10 20 -2 4 4 9 15 13 11 3 22 13 25 21 3 8
10 12 16 9 5 -3 10 -1 10 4 0 6 6 11 14 11 8 0 17 7 20 16 4 9 9 14 12 11 3
-3 17 6 30 20 13 14 24 23 24 19 0 -4 18 6 39 23 21 17 43 31 48 31 5 0 20 11
33 25 13 14 26 23 28 20 3 -3 12 4 19 15 8 11 19 18 24 15 5 -4 12 1 15 9 3 9
12 16 20 16 8 0 14 5 14 10 0 6 7 10 15 10 8 0 15 5 15 10 0 6 7 10 15 10 7 0
18 8 24 18 5 9 12 16 15 15 12 -6 25 -2 38 10 7 6 31 21 53 32 22 10 52 27 66
37 14 9 29 15 33 11 3 -3 6 57 6 135 0 157 -4 165 -56 117 -31 -29 -55 -34
-31 -7 10 10 17 22 17 25 0 4 -30 7 -66 7 -41 0 -63 -4 -59 -10 3 -6 -1 -13
-9 -16 -9 -3 -13 -10 -10 -15 3 -5 -2 -12 -10 -15 -9 -3 -13 -10 -10 -15 3 -5
0 -9 -5 -9 -6 0 -11 -6 -11 -14 0 -8 -7 -17 -16 -20 -8 -3 -12 -10 -9 -16 3
-6 0 -13 -8 -16 -9 -3 -18 -17 -21 -30 -4 -15 -11 -22 -18 -18 -8 5 -9 2 -5
-9 4 -10 1 -17 -5 -17 -6 0 -9 -3 -5 -6 6 -6 -10 -28 -64 -85 -20 -21 -34 -41
-31 -44 3 -3 -2 -5 -12 -5 -9 0 -15 -3 -13 -7 3 -5 -1 -14 -9 -21 -8 -7 -14
-9 -14 -5 0 4 -10 -3 -22 -15 -50 -50 -91 -81 -101 -75 -6 3 -8 2 -5 -3 3 -5
-3 -17 -14 -27 -10 -9 -18 -14 -18 -11 0 4 -20 -10 -45 -30 -25 -21 -45 -34
-45 -29 0 4 -7 -3 -16 -15 -14 -21 -62 -33 -49 -13 3 5 1 12 -4 15 -5 4 -7 -7
-4 -26 4 -28 3 -30 -10 -19 -12 9 -17 9 -23 0 -5 -8 -3 -9 6 -4 9 5 11 4 6 -4
-6 -8 -12 -9 -20 -2 -7 6 -15 8 -18 5 -3 -2 -8 7 -10 21 -4 17 -1 25 9 25 9 0
13 -6 9 -15 -3 -8 -1 -15 5 -15 5 0 8 16 6 35 -3 19 0 35 4 35 5 0 9 7 9 16 0
8 4 12 10 9 6 -3 10 1 10 10 0 14 97 170 125 201 5 6 17 22 25 34 8 13 23 30
32 38 9 9 15 19 12 24 -3 4 -1 8 5 8 5 0 18 13 27 29 10 17 21 28 26 25 4 -3
8 -1 8 5 0 13 68 81 81 81 6 0 8 4 5 8 -3 5 10 16 29 25 19 9 35 22 35 28 0 6
7 8 16 5 8 -3 12 -2 9 4 -4 6 -68 10 -154 10 -148 0 -149 0 -165 -25 -9 -14
-13 -25 -9 -25 4 0 -1 -6 -12 -13 -12 -9 -15 -19 -10 -28 5 -8 5 -11 0 -7 -9
8 -35 -24 -53 -64 -6 -16 -16 -28 -22 -28 -6 0 -9 -4 -5 -9 3 -5 0 -15 -7 -23
-7 -7 -19 -25 -27 -40 -8 -16 -18 -28 -23 -28 -5 0 -6 -4 -3 -10 3 -5 1 -10
-4 -10 -6 0 -11 -7 -11 -15 0 -8 -5 -15 -12 -15 -6 0 -8 -3 -5 -6 4 -4 -3 -15
-15 -25 -11 -11 -16 -19 -9 -19 6 0 -2 -14 -19 -31 -16 -17 -27 -35 -24 -40 2
-5 -7 -11 -22 -15 -17 -4 -22 -9 -14 -14 17 -10 3 -31 -15 -23 -19 7 -20 39
-2 46 8 3 12 18 11 36 -2 26 0 30 12 21 11 -10 12 -7 9 11 -3 13 -1 26 3 29
11 7 77 143 74 153 -1 4 3 7 10 7 6 0 9 3 5 6 -5 6 0 15 31 49 10 12 11 15 1
15 -7 0 -3 10 9 23 12 13 19 27 15 30 -3 4 -1 7 6 7 7 0 10 4 7 8 -3 5 2 18
12 28 35 40 28 44 -86 44 -89 0 -109 -3 -110 -15 -1 -8 -3 -22 -4 -30 -1 -8
-4 -15 -8 -15 -4 0 -7 -6 -7 -12 0 -7 -10 -34 -22 -60 -13 -26 -20 -52 -16
-58 3 -5 -2 -10 -11 -10 -10 0 -15 -3 -11 -6 3 -4 0 -19 -9 -35 -8 -16 -11
-29 -7 -29 5 0 0 -5 -9 -11 -10 -5 -18 -19 -18 -29 0 -11 -5 -20 -10 -20 -6 0
-9 -3 -8 -7 2 -11 -10 -41 -33 -84 -10 -20 -15 -40 -11 -44 4 -5 2 -5 -5 -1
-7 4 -14 -3 -19 -16 -4 -13 -5 -23 -3 -24 2 0 -4 -9 -14 -19 -10 -9 -16 -24
-12 -33 5 -12 3 -13 -10 -2 -9 7 -12 16 -8 19 9 7 17 43 17 84 1 15 6 25 12
23 6 -2 10 6 9 17 -1 12 3 25 9 29 7 5 7 8 -2 8 -8 0 -10 5 -5 13 4 6 9 23 11
37 2 13 7 29 12 35 5 6 7 23 6 38 -2 15 1 27 6 27 6 0 8 7 4 15 -3 8 -1 15 4
15 5 0 7 9 5 20 -2 11 1 20 7 20 6 0 8 10 4 24 -3 13 -2 26 3 28 5 2 11 17 13
33 1 17 7 33 12 36 5 4 6 14 3 23 -5 13 -24 16 -102 16 -101 0 -98 1 -97 -52
0 -16 -4 -28 -11 -28 -8 0 -8 -3 1 -12 6 -6 8 -17 3 -27 -5 -9 -7 -24 -6 -33
2 -10 0 -18 -3 -18 -4 0 -7 -17 -6 -38 0 -42 -5 -64 -15 -58 -3 2 -6 -16 -5
-40 0 -24 -3 -44 -8 -44 -5 0 -6 -4 -3 -10 6 -10 -9 -15 -30 -10 -5 1 -7 -2
-3 -6 4 -4 3 -13 -3 -21 -7 -8 -8 -13 -1 -13 5 0 13 7 16 16 3 8 10 12 16 9 6
-4 7 -13 1 -23 -5 -10 -12 -38 -16 -62 -7 -49 -12 -60 -25 -60 -19 0 -20 40
-1 74 21 36 21 36 1 36 -11 0 -20 -7 -20 -15 0 -8 -4 -15 -10 -15 -5 0 -10 5
-10 11 0 5 -5 7 -11 3 -8 -4 -8 0 0 15 9 16 9 21 0 21 -8 0 -8 4 1 15 10 12
10 15 0 15 -10 0 -10 3 -1 14 7 8 8 17 3 20 -10 6 -10 45 1 62 3 6 3 14 0 18
-12 12 -12 67 -1 60 7 -5 8 -2 2 7 -11 18 -11 49 -1 72 5 10 4 17 -3 17 -7 0
-8 6 -2 18 5 9 9 31 8 47 l-1 30 -101 3 -101 3 3 -48 c1 -26 3 -48 4 -48 1 0
3 -15 4 -32 1 -18 5 -36 9 -39 3 -4 2 -14 -3 -24 -5 -10 -6 -20 -3 -24 4 -4 9
-33 11 -64 2 -31 9 -60 15 -64 9 -6 9 -8 0 -8 -11 0 -14 -70 -3 -70 3 0 5 -21
5 -48 0 -26 5 -50 10 -54 6 -4 -2 -8 -16 -8 -23 0 -28 5 -33 35 -4 19 -14 41
-22 50 -12 11 -12 15 -2 15 10 0 10 2 1 8 -7 4 -13 22 -15 40 -1 18 -6 32 -10
32 -4 0 -7 3 -7 8 1 4 1 22 0 40 -1 23 -5 31 -13 26 -10 -5 -10 -4 -1 6 8 9 8
20 1 41 -6 16 -8 38 -5 49 3 11 2 18 -3 15 -4 -3 -11 2 -14 11 -3 8 -2 12 4 9
5 -3 8 4 7 15 -1 11 -4 20 -8 20 -4 0 -5 14 -2 31 3 24 1 29 -9 24 -10 -6 -10
-5 -2 4 7 7 9 21 7 32 -5 17 -15 19 -112 19 -58 0 -101 -4 -96 -8 6 -4 10 -14
10 -22 0 -8 2 -17 6 -20 4 -3 10 -21 12 -40 3 -19 6 -35 7 -35 3 0 11 -38 13
-62 1 -13 5 -23 9 -23 4 0 4 -7 1 -17 -4 -9 -2 -14 3 -10 5 3 9 -7 8 -21 0
-15 4 -30 9 -34 7 -4 6 -12 -3 -22 -11 -14 -11 -16 2 -11 11 4 13 -2 10 -31
-3 -25 -1 -35 6 -30 7 4 9 -1 7 -14 -3 -14 1 -20 13 -20 13 0 14 -2 3 -9 -11
-7 -11 -9 0 -14 11 -4 11 -6 1 -6 -8 -1 -10 -6 -5 -13 8 -13 12 -28 18 -65 2
-12 6 -26 9 -31 3 -5 -1 -9 -9 -9 -8 0 -12 4 -9 8 3 5 -3 20 -12 34 -9 14 -12
25 -8 25 5 0 5 4 -1 8 -5 4 -16 17 -23 30 -10 18 -10 22 0 22 10 0 9 3 -1 9
-11 7 -11 9 0 14 12 4 12 7 0 18 -8 8 -11 9 -8 3 4 -7 -1 -15 -10 -18 -10 -4
-14 -4 -10 0 4 4 2 13 -4 21 -6 7 -8 13 -5 13 4 0 0 7 -8 16 -9 8 -14 20 -11
25 4 5 2 9 -3 9 -4 0 -14 16 -22 35 -8 19 -18 35 -22 35 -5 0 -7 3 -4 8 2 4
-6 30 -20 57 -13 28 -24 55 -24 61 0 6 -9 28 -19 50 -11 21 -17 42 -14 46 2 5
-1 8 -6 8 -6 0 -10 6 -8 13 1 9 -26 13 -105 15 -70 2 -108 -1 -108 -8 0 -5 5
-10 11 -10 5 0 7 -4 4 -10 -3 -5 -1 -10 5 -10 7 0 10 -6 8 -12 -3 -7 0 -18 6
-25 29 -32 36 -43 31 -43 -3 0 10 -29 29 -64 19 -35 32 -66 29 -70 -4 -3 -1
-6 5 -6 6 0 16 -16 23 -35 7 -19 17 -35 22 -35 4 0 5 -4 2 -10 -3 -5 -1 -10 5
-10 7 0 10 -7 6 -15 -3 -8 -1 -15 4 -15 6 0 10 -9 10 -21 0 -12 4 -18 11 -13
8 5 10 -3 7 -23 -2 -18 0 -30 6 -29 6 1 13 -3 14 -9 2 -5 8 -15 12 -20 5 -6 0
-21 -12 -35 -11 -14 -17 -20 -14 -13 3 6 0 14 -6 16 -8 4 -9 6 -2 6 7 1 -4 18
-22 38 -19 20 -34 43 -34 49 0 7 -6 17 -13 21 -7 4 -24 29 -37 56 -14 26 -29
47 -33 47 -5 0 -6 4 -3 9 3 5 -1 12 -10 15 -8 3 -12 10 -9 16 3 5 1 10 -4 10
-6 0 -11 7 -11 15 0 8 -4 15 -10 15 -5 0 -10 7 -10 15 0 8 -4 15 -10 15 -5 0
-10 7 -10 15 0 8 -5 15 -12 15 -6 0 -9 3 -5 6 3 4 -4 15 -16 26 -12 11 -16 17
-10 13 8 -3 6 6 -5 24 -9 17 -20 31 -24 31 -5 0 -8 7 -8 15 0 8 -4 15 -9 15
-5 0 -11 9 -14 20 -5 19 -14 20 -162 20 -103 0 -154 -3 -150 -10 4 -6 11 -8
16 -5 5 4 9 1 9 -4 0 -6 7 -11 16 -11 8 0 12 -4 9 -10 -3 -5 -1 -10 5 -10 17
0 70 -42 64 -52 -3 -4 0 -8 6 -8 11 0 31 -20 83 -82 47 -57 62 -75 77 -98 8
-12 21 -29 28 -36 7 -8 10 -14 6 -14 -4 0 3 -9 16 -20 13 -11 19 -20 14 -20
-5 0 -2 -5 6 -10 8 -5 15 -13 15 -19 0 -5 14 -28 31 -52 18 -24 32 -48 32 -53
0 -5 4 -12 9 -15 16 -12 55 -74 42 -67 -8 4 -3 -2 11 -13 14 -11 19 -21 12
-21 -10 0 -10 -4 2 -16 9 -8 15 -25 15 -37 -1 -20 -2 -21 -6 -2 -3 11 -9 25
-15 30 -6 7 -7 4 -3 -6 4 -10 0 -16 -10 -16 -8 0 -15 6 -15 14 0 7 -9 13 -20
13 -11 0 -20 5 -20 11 0 5 -4 7 -10 4 -6 -3 -10 -1 -10 4 0 6 -6 11 -13 11 -7
0 -20 9 -30 20 -10 12 -22 18 -27 15 -5 -3 -11 4 -15 15 -3 11 -13 20 -21 20
-8 0 -14 4 -14 10 0 5 -3 9 -7 9 -21 -3 -33 2 -33 16 0 8 -7 15 -15 15 -8 0
-15 5 -15 12 0 6 -3 9 -6 5 -3 -3 -20 9 -36 26 -17 18 -27 25 -22 17 4 -8 -18
11 -50 43 -32 31 -61 57 -65 57 -4 0 -14 11 -21 25 -7 13 -17 22 -22 19 -4 -3
-8 4 -8 15 0 11 -8 25 -17 30 -10 6 -15 11 -11 11 5 0 -2 11 -14 25 -12 14
-23 32 -24 41 -1 8 -12 23 -23 33 -11 10 -18 20 -16 23 3 3 -6 17 -20 32 -14
15 -23 31 -20 36 3 4 -2 11 -11 14 -8 3 -12 11 -8 17 4 8 3 9 -4 5 -7 -4 -12
-2 -12 3 0 7 -26 11 -67 10 -38 0 -62 -3 -55 -6 16 -6 6 -23 -14 -23 -8 0 -13
4 -10 9 6 8 -15 21 -35 21 -5 0 -9 -58 -9 -131z m95 91 c3 -5 -1 -10 -9 -10
-9 0 -16 5 -16 10 0 6 4 10 9 10 6 0 13 -4 16 -10z m971 -507 c1 -12 -2 -20
-7 -17 -5 3 -9 0 -9 -7 0 -10 -3 -10 -11 -2 -13 13 -3 50 14 50 6 0 13 -11 13
-24z m384 -43 c0 -14 -5 -18 -17 -13 -11 4 -13 8 -5 11 7 2 10 8 6 13 -3 5 0
9 5 9 6 0 11 -9 11 -20z m591 6 c12 7 11 2 -6 -40 -8 -20 -20 -36 -25 -36 -5
0 -12 -11 -16 -24 -3 -14 -15 -33 -27 -43 -21 -17 -21 -17 -7 0 7 10 14 33 15
50 1 17 7 33 13 35 6 2 9 9 6 17 -3 7 0 16 7 21 8 5 10 3 4 -6 -5 -9 -4 -11 4
-6 9 6 9 11 1 21 -8 10 -7 14 2 18 7 2 15 0 16 -5 2 -4 8 -6 13 -2z m-894
-112 c-3 -4 1 -13 9 -21 8 -8 12 -19 9 -24 -4 -5 -1 -9 6 -9 7 0 10 -3 6 -6
-3 -3 2 -14 11 -24 8 -11 16 -29 17 -41 2 -22 2 -22 -17 2 -10 13 -22 29 -28
36 -5 7 -10 19 -10 28 0 9 -7 18 -15 21 -11 5 -12 11 -4 25 5 10 13 19 16 19
3 0 4 -3 0 -6z m799 -70 c-1 -9 -10 -22 -19 -29 -9 -7 -15 -14 -12 -17 3 -2
-2 -5 -10 -5 -15 0 -13 5 24 50 18 21 20 21 17 1z m-1170 -20 c-3 -7 0 -15 7
-18 7 -2 4 -5 -6 -5 -12 -1 -16 -6 -11 -13 4 -7 3 -9 -2 -5 -14 13 -12 54 3
54 8 0 12 -6 9 -13z m1704 -68 c0 -2 -8 -10 -17 -17 -16 -13 -17 -12 -4 4 13
16 21 21 21 13z"/>
<path d="M1009 2613 c-13 -16 -12 -17 4 -4 9 7 17 15 17 17 0 8 -8 3 -21 -13z"/>
<path d="M313 1331 c0 -11 5 -18 9 -15 4 3 5 11 1 19 -7 21 -12 19 -10 -4z"/>
<path d="M250 1220 c0 -5 5 -10 10 -10 6 0 10 5 10 10 0 6 -4 10 -10 10 -5 0
-10 -4 -10 -10z"/>
</g>
</svg>
